<svg width="32" height="32" viewBox="0 0 32 32" fill="none" xmlns="http://www.w3.org/2000/svg">
<path d="M23.7184 0H8.28157C3.70779 0 0 3.70779 0 8.28157V23.7184C0 28.2922 3.70779 32 8.28157 32H23.7184C28.2922 32 32 28.2922 32 23.7184V8.28157C32 3.70779 28.2922 0 23.7184 0Z" fill="white"/>
<path d="M16.4264 10.8658L22.8426 12.9305C22.9479 12.9651 23.0453 13.0205 23.1286 13.0934C23.2121 13.1664 23.28 13.2554 23.3284 13.3552C23.3768 13.4551 23.4046 13.5637 23.4102 13.6747C23.4158 13.7858 23.3993 13.8969 23.3614 14.0017L19.689 24.5796C19.6161 24.7956 19.4616 24.9748 19.2587 25.0787C19.0558 25.1825 18.8207 25.2027 18.6041 25.1348L12.1886 23.0709C12.0831 23.0363 11.9857 22.981 11.9021 22.9079C11.8186 22.835 11.7506 22.7459 11.7022 22.6461C11.6537 22.546 11.6259 22.4374 11.6202 22.3262C11.6146 22.2151 11.6312 22.1038 11.6692 21.9989L15.3422 11.4204C15.4151 11.2044 15.5696 11.0253 15.7725 10.9214C15.9754 10.8176 16.2098 10.798 16.4264 10.8658Z" stroke="#650097" stroke-width="2" stroke-linecap="round" stroke-linejoin="round"/>
<path d="M21.2227 27.1079L22.2088 27.2116C22.4704 27.2391 22.7379 27.1081 22.9522 26.8474C23.1665 26.5865 23.3104 26.2175 23.352 25.8213L23.9016 20.5923" stroke="#650097" stroke-width="2" stroke-linecap="round" stroke-linejoin="round"/>
<path d="M24.6982 28.2077C24.9762 28.0678 25.245 27.9374 25.505 27.8167C25.7619 27.6873 25.9832 27.414 26.1197 27.0569C26.2563 26.7 26.2972 26.2886 26.2335 25.9131" stroke="#650097" stroke-width="2" stroke-linecap="round" stroke-linejoin="round"/>
<path d="M5.07482 5.57882L6.05625 5.04341C6.11851 5.00944 6.19527 5.04974 6.20269 5.12027L6.95628 12.2903C6.96764 12.3983 6.82218 12.4436 6.77019 12.3482L4.36598 7.93655C3.91732 7.09141 4.2189 6.03619 5.07482 5.57882ZM22.3386 7.00108L19.1198 17.7932C19.0261 18.1212 18.8383 18.4147 18.5794 18.6376C18.3207 18.8607 18.0022 19.0035 17.6631 19.0486C17.4375 19.0722 17.1985 19.0537 16.9628 18.9821L10.2878 17.0156C9.60853 16.8159 9.14193 16.2176 9.05726 15.5791C9.02495 15.355 9.04197 15.0996 9.09645 14.8664L12.3501 4.07058C12.4395 3.74102 12.6263 3.44586 12.8863 3.2235C13.1462 3.00114 13.4673 2.8619 13.8076 2.82388C14.0333 2.80017 14.2644 2.82836 14.4896 2.88343L21.1559 4.8509C21.5988 4.97961 21.9723 5.27841 22.1941 5.68162C22.4159 6.08482 22.4679 6.55942 22.3386 7.00108ZM7.97375 5.18665C7.92552 4.7277 8.06216 4.26831 8.35364 3.90957C8.64512 3.55082 9.06756 3.32209 9.528 3.27369L10.6387 3.15695C10.7092 3.14955 10.7645 3.21615 10.7443 3.28407L8.55031 10.6723" fill="#650097"/>
</svg>
