<svg width="331" height="68" viewBox="0 0 331 68" fill="none" xmlns="http://www.w3.org/2000/svg">
<path d="M75.36 20.36H81.28V24.12H81.56C82.0667 22.8933 82.8 21.88 83.76 21.08C84.72 20.28 86.0267 19.88 87.68 19.88C88.8267 19.88 89.8667 20.0933 90.8 20.52C91.76 20.9467 92.5733 21.6 93.24 22.48C93.9333 23.36 94.4667 24.48 94.84 25.84C95.24 27.2 95.44 28.8133 95.44 30.68C95.44 32.5467 95.24 34.16 94.84 35.52C94.4667 36.88 93.9333 38 93.24 38.88C92.5733 39.76 91.76 40.4133 90.8 40.84C89.8667 41.2667 88.8267 41.48 87.68 41.48C86.0267 41.48 84.72 41.0933 83.76 40.32C82.8 39.52 82.0667 38.4933 81.56 37.24H81.28V49H75.36V20.36ZM85.12 36.88C86.4533 36.88 87.48 36.48 88.2 35.68C88.92 34.8533 89.28 33.72 89.28 32.28V29.08C89.28 27.64 88.92 26.52 88.2 25.72C87.48 24.8933 86.4533 24.48 85.12 24.48C84.08 24.48 83.1733 24.7333 82.4 25.24C81.6533 25.7467 81.28 26.5467 81.28 27.64V33.72C81.28 34.8133 81.6533 35.6133 82.4 36.12C83.1733 36.6267 84.08 36.88 85.12 36.88ZM109.784 41.48C108.184 41.48 106.744 41.24 105.464 40.76C104.184 40.2533 103.091 39.5333 102.184 38.6C101.304 37.6667 100.624 36.5333 100.144 35.2C99.6644 33.8667 99.4244 32.36 99.4244 30.68C99.4244 29 99.6644 27.4933 100.144 26.16C100.624 24.8267 101.304 23.6933 102.184 22.76C103.091 21.8267 104.184 21.12 105.464 20.64C106.744 20.1333 108.184 19.88 109.784 19.88C111.384 19.88 112.824 20.1333 114.104 20.64C115.384 21.12 116.464 21.8267 117.344 22.76C118.251 23.6933 118.944 24.8267 119.424 26.16C119.904 27.4933 120.144 29 120.144 30.68C120.144 32.36 119.904 33.8667 119.424 35.2C118.944 36.5333 118.251 37.6667 117.344 38.6C116.464 39.5333 115.384 40.2533 114.104 40.76C112.824 41.24 111.384 41.48 109.784 41.48ZM109.784 37.08C111.118 37.08 112.158 36.6667 112.904 35.84C113.651 35.0133 114.024 33.84 114.024 32.32V29.04C114.024 27.52 113.651 26.3467 112.904 25.52C112.158 24.6933 111.118 24.28 109.784 24.28C108.451 24.28 107.411 24.6933 106.664 25.52C105.918 26.3467 105.544 27.52 105.544 29.04V32.32C105.544 33.84 105.918 35.0133 106.664 35.84C107.411 36.6667 108.451 37.08 109.784 37.08ZM125.529 36.4H130.289V24.96H125.529V20.36H136.209V26.2H136.489C136.675 25.4533 136.929 24.7333 137.249 24.04C137.595 23.32 138.022 22.6933 138.529 22.16C139.062 21.6 139.702 21.16 140.449 20.84C141.195 20.52 142.075 20.36 143.089 20.36H145.049V25.8H140.649C139.182 25.8 138.075 26.24 137.329 27.12C136.582 27.9733 136.209 29.0267 136.209 30.28V36.4H143.009V41H125.529V36.4ZM160.953 41C158.82 41 157.233 40.44 156.193 39.32C155.153 38.2 154.633 36.7733 154.633 35.04V24.96H149.033V20.36H152.673C153.553 20.36 154.18 20.1867 154.553 19.84C154.926 19.4933 155.113 18.8533 155.113 17.92V13.08H160.553V20.36H168.593V24.96H160.553V36.4H168.593V41H160.953ZM187.617 37.24H187.377C186.924 38.4133 186.204 39.4133 185.217 40.24C184.257 41.0667 182.951 41.48 181.297 41.48C180.311 41.48 179.404 41.32 178.577 41C177.751 40.6533 177.044 40.1467 176.457 39.48C175.871 38.8133 175.404 38 175.057 37.04C174.737 36.08 174.577 34.9733 174.577 33.72V20.36H180.497V32.92C180.497 35.5867 181.657 36.92 183.977 36.92C184.431 36.92 184.871 36.8667 185.297 36.76C185.751 36.6267 186.137 36.44 186.457 36.2C186.804 35.9333 187.084 35.6133 187.297 35.24C187.511 34.8667 187.617 34.4267 187.617 33.92V20.36H193.537V41H187.617V37.24ZM199.762 36.4H205.842V24.96H199.362V20.36H205.842V17.36C205.842 15.6 206.349 14.1733 207.362 13.08C208.402 11.96 210.002 11.4 212.162 11.4H219.162V16H211.762V20.36H219.162V24.96H211.762V36.4H218.242V41H199.762V36.4ZM224.426 36.4H230.746V16H224.426V11.4H236.666V36.4H242.986V41H224.426V36.4ZM265.971 41C264.744 41 263.757 40.6933 263.011 40.08C262.264 39.44 261.824 38.5333 261.691 37.36H261.491C261.117 38.72 260.371 39.7467 259.251 40.44C258.157 41.1333 256.811 41.48 255.211 41.48C253.211 41.48 251.597 40.9467 250.371 39.88C249.171 38.7867 248.571 37.2667 248.571 35.32C248.571 33.16 249.357 31.56 250.931 30.52C252.504 29.48 254.811 28.96 257.851 28.96H261.171V27.92C261.171 26.6933 260.877 25.7733 260.291 25.16C259.731 24.52 258.771 24.2 257.411 24.2C256.157 24.2 255.144 24.44 254.371 24.92C253.597 25.4 252.931 26.0267 252.371 26.8L249.131 23.92C249.824 22.7467 250.904 21.7867 252.371 21.04C253.864 20.2667 255.771 19.88 258.091 19.88C260.917 19.88 263.117 20.5333 264.691 21.84C266.291 23.12 267.091 25.0667 267.091 27.68V36.72H269.371V41H265.971ZM257.451 37.6C258.491 37.6 259.371 37.3467 260.091 36.84C260.811 36.3333 261.171 35.6 261.171 34.64V32.16H258.011C255.584 32.16 254.371 32.9733 254.371 34.6V35.4C254.371 36.12 254.651 36.6667 255.211 37.04C255.771 37.4133 256.517 37.6 257.451 37.6ZM283.035 41.48C280.742 41.48 278.742 41.1333 277.035 40.44C275.355 39.7467 274.088 38.8 273.235 37.6L276.555 34.52C277.355 35.4 278.288 36.0933 279.355 36.6C280.448 37.08 281.688 37.32 283.075 37.32C284.248 37.32 285.168 37.1467 285.835 36.8C286.502 36.4267 286.835 35.8667 286.835 35.12C286.835 34.5333 286.608 34.1333 286.155 33.92C285.702 33.68 285.075 33.4933 284.275 33.36L280.955 32.84C280.022 32.7067 279.155 32.5067 278.355 32.24C277.555 31.9467 276.862 31.56 276.275 31.08C275.688 30.6 275.222 30.0133 274.875 29.32C274.528 28.6267 274.355 27.7867 274.355 26.8C274.355 24.64 275.182 22.9467 276.835 21.72C278.488 20.4933 280.808 19.88 283.795 19.88C285.822 19.88 287.542 20.16 288.955 20.72C290.395 21.2533 291.542 22.0267 292.395 23.04L289.435 26.4C288.822 25.7333 288.035 25.1733 287.075 24.72C286.115 24.2667 284.955 24.04 283.595 24.04C281.302 24.04 280.155 24.7333 280.155 26.12C280.155 26.7333 280.382 27.16 280.835 27.4C281.288 27.6133 281.915 27.7867 282.715 27.92L285.995 28.44C286.928 28.5733 287.795 28.7867 288.595 29.08C289.395 29.3467 290.088 29.72 290.675 30.2C291.288 30.68 291.768 31.2667 292.115 31.96C292.462 32.6533 292.635 33.4933 292.635 34.48C292.635 36.64 291.795 38.3467 290.115 39.6C288.462 40.8533 286.102 41.48 283.035 41.48ZM298.659 11.4H304.579V24.12H304.819C305.059 23.5333 305.353 22.9867 305.699 22.48C306.046 21.9733 306.459 21.5333 306.939 21.16C307.446 20.76 308.019 20.4533 308.659 20.24C309.326 20 310.073 19.88 310.899 19.88C311.886 19.88 312.793 20.0533 313.619 20.4C314.446 20.72 315.153 21.2133 315.739 21.88C316.326 22.5467 316.779 23.36 317.099 24.32C317.446 25.28 317.619 26.3867 317.619 27.64V41H311.699V28.44C311.699 25.7733 310.539 24.44 308.219 24.44C307.766 24.44 307.313 24.5067 306.859 24.64C306.433 24.7467 306.046 24.9333 305.699 25.2C305.353 25.44 305.073 25.7467 304.859 26.12C304.673 26.4933 304.579 26.9333 304.579 27.44V41H298.659V11.4Z" fill="white"/>
<path d="M30.4688 22.7157L45.9289 27.58C46.1829 27.6615 46.4178 27.79 46.6199 27.9581C46.822 28.1261 46.9872 28.3303 47.1056 28.5585C47.2241 28.7867 47.2934 29.0343 47.3096 29.2868C47.3258 29.5394 47.2884 29.7916 47.1998 30.0287L38.621 53.9732C38.4509 54.462 38.0839 54.8651 37.5989 55.0957C37.114 55.3263 36.5498 55.3659 36.028 55.2061L20.5695 50.3431C20.3152 50.2618 20.0799 50.1333 19.8775 49.9652C19.6751 49.7972 19.5097 49.5929 19.3911 49.3645C19.2725 49.1361 19.2031 48.8883 19.1869 48.6355C19.1707 48.3828 19.2082 48.1303 19.297 47.8931L27.8772 23.9471C28.0472 23.4583 28.4142 23.0552 28.8992 22.8246C29.3842 22.594 29.9469 22.5558 30.4688 22.7157Z" stroke="white" stroke-width="4" stroke-linecap="round" stroke-linejoin="round"/>
<path d="M42.3633 59.7607L44.7346 60.0227C45.3635 60.0922 46.0028 59.8015 46.5118 59.2146C47.0208 58.6277 47.3578 57.7927 47.4488 56.8932L48.6488 45.0231" stroke="white" stroke-width="4" stroke-linecap="round" stroke-linejoin="round"/>
<path d="M50.7363 62.3525C51.4007 62.0419 52.0438 61.7528 52.6655 61.4854C53.2799 61.198 53.8048 60.5828 54.1247 59.7751C54.4447 58.9673 54.5336 58.0332 54.3718 57.1781" stroke="white" stroke-width="4" stroke-linecap="round" stroke-linejoin="round"/>
<path d="M3.07897 10.396V10.396C4.35395 9.74874 5.92538 10.6037 6.09914 12.0392L6.36478 14.2338C6.71004 17.0861 2.89328 18.248 1.4304 15.736V15.736C0.33321 13.8031 1.03343 11.4127 3.07897 10.396ZM44.5821 14.0903L37.0979 38.5337C36.8803 39.2765 36.4359 39.9386 35.8194 40.4386C35.2028 40.9386 34.441 41.2547 33.6277 41.348C33.0861 41.3959 32.5117 41.3471 31.9439 41.1784L15.8642 36.5302C14.2279 36.0579 13.0933 34.6855 12.8753 33.2321C12.7925 32.722 12.8275 32.1418 12.953 31.6133L20.5206 7.16251C20.7278 6.41585 21.1699 5.74997 21.7892 5.25154C22.4086 4.7531 23.1765 4.44519 23.9932 4.36788C24.5348 4.32 25.0907 4.39026 25.6329 4.52143L41.6918 9.17154C42.7587 9.47593 43.6625 10.1651 44.2045 11.0874C44.7465 12.0098 44.8823 13.0899 44.5821 14.0903ZM10.0337 9.5822C9.90724 8.53776 10.2249 7.49729 10.9169 6.68969C11.6088 5.88208 12.6183 5.37349 13.7233 5.27581V5.27581C15.1487 5.14979 16.2825 6.52233 15.8702 7.87485L11.5447 22.0659" fill="white"/>
</svg>
