<svg width="243" height="38" viewBox="0 0 243 38" fill="none" xmlns="http://www.w3.org/2000/svg">
<path d="M0.36 9.36H6.28V13.12H6.56C7.06667 11.8933 7.8 10.88 8.76 10.08C9.72 9.28 11.0267 8.88 12.68 8.88C13.8267 8.88 14.8667 9.09333 15.8 9.52C16.76 9.94667 17.5733 10.6 18.24 11.48C18.9333 12.36 19.4667 13.48 19.84 14.84C20.24 16.2 20.44 17.8133 20.44 19.68C20.44 21.5467 20.24 23.16 19.84 24.52C19.4667 25.88 18.9333 27 18.24 27.88C17.5733 28.76 16.76 29.4133 15.8 29.84C14.8667 30.2667 13.8267 30.48 12.68 30.48C11.0267 30.48 9.72 30.0933 8.76 29.32C7.8 28.52 7.06667 27.4933 6.56 26.24H6.28V38H0.36V9.36ZM10.12 25.88C11.4533 25.88 12.48 25.48 13.2 24.68C13.92 23.8533 14.28 22.72 14.28 21.28V18.08C14.28 16.64 13.92 15.52 13.2 14.72C12.48 13.8933 11.4533 13.48 10.12 13.48C9.08 13.48 8.17333 13.7333 7.4 14.24C6.65333 14.7467 6.28 15.5467 6.28 16.64V22.72C6.28 23.8133 6.65333 24.6133 7.4 25.12C8.17333 25.6267 9.08 25.88 10.12 25.88ZM34.7844 30.48C33.1844 30.48 31.7444 30.24 30.4644 29.76C29.1844 29.2533 28.091 28.5333 27.1844 27.6C26.3044 26.6667 25.6244 25.5333 25.1444 24.2C24.6644 22.8667 24.4244 21.36 24.4244 19.68C24.4244 18 24.6644 16.4933 25.1444 15.16C25.6244 13.8267 26.3044 12.6933 27.1844 11.76C28.091 10.8267 29.1844 10.12 30.4644 9.64C31.7444 9.13333 33.1844 8.88 34.7844 8.88C36.3844 8.88 37.8244 9.13333 39.1044 9.64C40.3844 10.12 41.4644 10.8267 42.3444 11.76C43.251 12.6933 43.9444 13.8267 44.4244 15.16C44.9044 16.4933 45.1444 18 45.1444 19.68C45.1444 21.36 44.9044 22.8667 44.4244 24.2C43.9444 25.5333 43.251 26.6667 42.3444 27.6C41.4644 28.5333 40.3844 29.2533 39.1044 29.76C37.8244 30.24 36.3844 30.48 34.7844 30.48ZM34.7844 26.08C36.1177 26.08 37.1577 25.6667 37.9044 24.84C38.651 24.0133 39.0244 22.84 39.0244 21.32V18.04C39.0244 16.52 38.651 15.3467 37.9044 14.52C37.1577 13.6933 36.1177 13.28 34.7844 13.28C33.451 13.28 32.411 13.6933 31.6644 14.52C30.9177 15.3467 30.5444 16.52 30.5444 18.04V21.32C30.5444 22.84 30.9177 24.0133 31.6644 24.84C32.411 25.6667 33.451 26.08 34.7844 26.08ZM50.5287 25.4H55.2887V13.96H50.5287V9.36H61.2087V15.2H61.4887C61.6754 14.4533 61.9287 13.7333 62.2487 13.04C62.5954 12.32 63.0221 11.6933 63.5287 11.16C64.0621 10.6 64.7021 10.16 65.4487 9.84C66.1954 9.52 67.0754 9.36 68.0887 9.36H70.0487V14.8H65.6487C64.1821 14.8 63.0754 15.24 62.3287 16.12C61.5821 16.9733 61.2087 18.0267 61.2087 19.28V25.4H68.0087V30H50.5287V25.4ZM85.9531 30C83.8198 30 82.2331 29.44 81.1931 28.32C80.1531 27.2 79.6331 25.7733 79.6331 24.04V13.96H74.0331V9.36H77.6731C78.5531 9.36 79.1798 9.18667 79.5531 8.84C79.9265 8.49333 80.1131 7.85333 80.1131 6.92V2.08H85.5531V9.36H93.5931V13.96H85.5531V25.4H93.5931V30H85.9531ZM112.617 26.24H112.377C111.924 27.4133 111.204 28.4133 110.217 29.24C109.257 30.0667 107.951 30.48 106.297 30.48C105.311 30.48 104.404 30.32 103.577 30C102.751 29.6533 102.044 29.1467 101.457 28.48C100.871 27.8133 100.404 27 100.057 26.04C99.7375 25.08 99.5775 23.9733 99.5775 22.72V9.36H105.497V21.92C105.497 24.5867 106.657 25.92 108.977 25.92C109.431 25.92 109.871 25.8667 110.297 25.76C110.751 25.6267 111.137 25.44 111.457 25.2C111.804 24.9333 112.084 24.6133 112.297 24.24C112.511 23.8667 112.617 23.4267 112.617 22.92V9.36H118.537V30H112.617V26.24ZM124.762 25.4H130.842V13.96H124.362V9.36H130.842V6.36C130.842 4.6 131.349 3.17333 132.362 2.08C133.402 0.96 135.002 0.4 137.162 0.4H144.162V5H136.762V9.36H144.162V13.96H136.762V25.4H143.242V30H124.762V25.4ZM149.426 25.4H155.746V5H149.426V0.4H161.666V25.4H167.986V30H149.426V25.4ZM190.971 30C189.744 30 188.757 29.6933 188.011 29.08C187.264 28.44 186.824 27.5333 186.691 26.36H186.491C186.117 27.72 185.371 28.7467 184.251 29.44C183.157 30.1333 181.811 30.48 180.211 30.48C178.211 30.48 176.597 29.9467 175.371 28.88C174.171 27.7867 173.571 26.2667 173.571 24.32C173.571 22.16 174.357 20.56 175.931 19.52C177.504 18.48 179.811 17.96 182.851 17.96H186.171V16.92C186.171 15.6933 185.877 14.7733 185.291 14.16C184.731 13.52 183.771 13.2 182.411 13.2C181.157 13.2 180.144 13.44 179.371 13.92C178.597 14.4 177.931 15.0267 177.371 15.8L174.131 12.92C174.824 11.7467 175.904 10.7867 177.371 10.04C178.864 9.26667 180.771 8.88 183.091 8.88C185.917 8.88 188.117 9.53333 189.691 10.84C191.291 12.12 192.091 14.0667 192.091 16.68V25.72H194.371V30H190.971ZM182.451 26.6C183.491 26.6 184.371 26.3467 185.091 25.84C185.811 25.3333 186.171 24.6 186.171 23.64V21.16H183.011C180.584 21.16 179.371 21.9733 179.371 23.6V24.4C179.371 25.12 179.651 25.6667 180.211 26.04C180.771 26.4133 181.517 26.6 182.451 26.6ZM208.035 30.48C205.742 30.48 203.742 30.1333 202.035 29.44C200.355 28.7467 199.088 27.8 198.235 26.6L201.555 23.52C202.355 24.4 203.288 25.0933 204.355 25.6C205.448 26.08 206.688 26.32 208.075 26.32C209.248 26.32 210.168 26.1467 210.835 25.8C211.502 25.4267 211.835 24.8667 211.835 24.12C211.835 23.5333 211.608 23.1333 211.155 22.92C210.702 22.68 210.075 22.4933 209.275 22.36L205.955 21.84C205.022 21.7067 204.155 21.5067 203.355 21.24C202.555 20.9467 201.862 20.56 201.275 20.08C200.688 19.6 200.222 19.0133 199.875 18.32C199.528 17.6267 199.355 16.7867 199.355 15.8C199.355 13.64 200.182 11.9467 201.835 10.72C203.488 9.49333 205.808 8.88 208.795 8.88C210.822 8.88 212.542 9.16 213.955 9.72C215.395 10.2533 216.542 11.0267 217.395 12.04L214.435 15.4C213.822 14.7333 213.035 14.1733 212.075 13.72C211.115 13.2667 209.955 13.04 208.595 13.04C206.302 13.04 205.155 13.7333 205.155 15.12C205.155 15.7333 205.382 16.16 205.835 16.4C206.288 16.6133 206.915 16.7867 207.715 16.92L210.995 17.44C211.928 17.5733 212.795 17.7867 213.595 18.08C214.395 18.3467 215.088 18.72 215.675 19.2C216.288 19.68 216.768 20.2667 217.115 20.96C217.462 21.6533 217.635 22.4933 217.635 23.48C217.635 25.64 216.795 27.3467 215.115 28.6C213.462 29.8533 211.102 30.48 208.035 30.48ZM223.659 0.4H229.579V13.12H229.819C230.059 12.5333 230.353 11.9867 230.699 11.48C231.046 10.9733 231.459 10.5333 231.939 10.16C232.446 9.76 233.019 9.45333 233.659 9.24C234.326 9 235.073 8.88 235.899 8.88C236.886 8.88 237.793 9.05333 238.619 9.4C239.446 9.72 240.153 10.2133 240.739 10.88C241.326 11.5467 241.779 12.36 242.099 13.32C242.446 14.28 242.619 15.3867 242.619 16.64V30H236.699V17.44C236.699 14.7733 235.539 13.44 233.219 13.44C232.766 13.44 232.313 13.5067 231.859 13.64C231.433 13.7467 231.046 13.9333 230.699 14.2C230.353 14.44 230.073 14.7467 229.859 15.12C229.673 15.4933 229.579 15.9333 229.579 16.44V30H223.659V0.4Z" fill="white"/>
</svg>
